<?xml version="1.0" standalone="no"?>
<!DOCTYPE svg PUBLIC "-//W3C//DTD SVG 20010904//EN"
 "http://www.w3.org/TR/2001/REC-SVG-20010904/DTD/svg10.dtd">
<svg version="1.0" xmlns="http://www.w3.org/2000/svg"
 width="96.000000pt" height="96.000000pt" viewBox="0 0 96.000000 96.000000"
 preserveAspectRatio="xMidYMid meet">

<g transform="translate(0.000000,96.000000) scale(0.100000,-0.100000)"
fill="#717171" stroke="none">
<path d="M447 918 c-9 -7 -106 -200 -215 -428 l-199 -415 26 -14 c23 -12 26
-12 39 8 14 21 18 21 382 21 365 0 368 0 382 -21 12 -19 17 -20 36 -10 12 6
22 15 22 20 0 5 -25 61 -55 126 l-55 117 0 259 0 259 -30 0 -30 0 -1 -192 -1
-193 -113 231 c-120 246 -138 269 -188 232z m96 -181 c32 -67 57 -125 57 -129
0 -5 -56 -8 -124 -8 l-125 0 62 130 c34 71 64 129 67 129 3 0 31 -55 63 -122z
m183 -383 c49 -103 90 -190 92 -195 2 -5 -39 -9 -92 -9 l-96 0 0 115 c0 154
-1 155 -150 155 -149 0 -150 -1 -150 -155 l0 -115 -96 0 c-53 0 -94 4 -92 9 2
5 43 93 92 195 l89 186 157 0 157 0 89 -186z m-156 -99 l0 -105 -90 0 -90 0 0
105 0 105 90 0 90 0 0 -105z"/>
</g>
</svg>
