<?xml version="1.0" standalone="no"?>
<!DOCTYPE svg PUBLIC "-//W3C//DTD SVG 20010904//EN"
 "http://www.w3.org/TR/2001/REC-SVG-20010904/DTD/svg10.dtd">
<svg version="1.0" xmlns="http://www.w3.org/2000/svg"
 width="96.000000pt" height="96.000000pt" viewBox="0 0 96.000000 96.000000"
 preserveAspectRatio="xMidYMid meet">

<g transform="translate(0.000000,96.000000) scale(0.100000,-0.100000)"
fill="#717171" stroke="none">
<path d="M450 893 c-17 -7 -309 -241 -357 -286 l-33 -31 0 -242 c0 -240 0
-243 22 -258 19 -14 75 -16 405 -16 l382 0 15 22 c13 19 16 61 16 258 l0 236
-32 30 c-18 17 -104 88 -190 158 -150 121 -191 144 -228 129z m218 -200 l172
-138 0 -195 0 -195 -19 41 c-10 22 -36 56 -58 74 -38 32 -39 35 -27 59 24 46
17 88 -20 129 -31 33 -39 37 -85 37 -43 0 -55 -5 -82 -31 -38 -38 -50 -101
-26 -137 15 -23 14 -25 -14 -46 l-29 -22 -29 22 c-27 20 -28 23 -15 48 24 46
18 87 -20 129 -31 33 -39 37 -85 37 -43 0 -55 -5 -82 -31 -37 -38 -50 -101
-26 -137 14 -22 13 -24 -25 -56 -22 -19 -49 -53 -59 -75 l-19 -41 0 195 0 196
177 142 c97 79 182 141 188 138 7 -2 89 -67 183 -143z m-298 -263 c24 -24 25
-49 5 -76 -8 -10 -15 -34 -15 -51 0 -28 6 -35 41 -54 34 -17 40 -24 35 -42 -4
-12 -9 -37 -13 -54 l-6 -33 -118 0 c-134 0 -134 0 -99 70 13 26 34 47 60 60
34 18 40 25 40 53 0 17 -7 41 -15 51 -8 11 -15 28 -15 38 0 24 35 58 60 58 11
0 29 -9 40 -20z m300 0 c24 -24 25 -49 5 -76 -8 -10 -15 -34 -15 -51 0 -28 6
-35 40 -53 26 -13 47 -34 60 -60 36 -71 38 -70 -130 -70 -168 0 -166 -1 -130
70 13 26 34 47 60 60 34 18 40 25 40 53 0 17 -7 41 -15 51 -8 11 -15 28 -15
38 0 24 35 58 60 58 11 0 29 -9 40 -20z"/>
</g>
</svg>
