<?xml version="1.0" standalone="no"?>
<!DOCTYPE svg PUBLIC "-//W3C//DTD SVG 20010904//EN"
 "http://www.w3.org/TR/2001/REC-SVG-20010904/DTD/svg10.dtd">
<svg version="1.0" xmlns="http://www.w3.org/2000/svg"
 width="96.000000pt" height="96.000000pt" viewBox="0 0 96.000000 96.000000"
 preserveAspectRatio="xMidYMid meet">

<g transform="translate(0.000000,96.000000) scale(0.100000,-0.100000)"
fill="#000000" stroke="none">
<path d="M448 870 l-3 -60 -57 34 -57 35 -16 -26 c-9 -13 -15 -26 -13 -27 2
-2 36 -22 76 -45 l72 -42 0 -104 0 -104 -90 52 -90 52 0 88 0 87 -30 0 -30 0
0 -70 0 -70 -53 30 c-51 29 -53 29 -65 10 -18 -29 -16 -33 33 -60 25 -14 45
-28 45 -32 0 -3 -25 -21 -55 -38 -50 -29 -54 -33 -44 -53 7 -12 13 -24 15 -26
1 -1 37 16 79 39 l75 42 85 -48 c47 -26 85 -50 85 -54 0 -7 -157 -100 -170
-100 -4 0 -40 19 -80 41 -39 23 -72 40 -74 38 -2 -2 -9 -14 -15 -26 -11 -21
-7 -25 44 -54 30 -17 55 -34 55 -39 0 -4 -20 -18 -45 -31 -48 -26 -52 -34 -31
-62 13 -17 17 -16 65 12 l51 30 0 -69 0 -70 30 0 30 0 0 88 0 87 84 48 c46 26
86 47 90 47 3 0 6 -45 6 -100 l0 -99 -72 -42 c-40 -24 -75 -44 -77 -46 -2 -1
4 -14 13 -27 l16 -25 58 33 57 34 3 -59 c3 -58 4 -59 32 -59 28 0 29 1 32 59
l3 59 57 -33 57 -34 16 26 c9 13 15 26 13 27 -2 1 -36 21 -75 45 l-73 42 0 99
c0 55 3 100 6 100 4 0 44 -21 90 -47 l84 -48 0 -87 0 -88 30 0 30 0 0 70 0 69
51 -30 c48 -28 52 -29 65 -12 21 28 17 37 -31 63 -25 14 -45 28 -45 31 0 4 25
21 55 38 51 29 55 33 44 54 -6 12 -13 24 -15 26 -2 2 -35 -15 -74 -38 -40 -22
-76 -41 -80 -41 -13 0 -170 93 -170 100 0 4 38 28 85 54 l85 48 75 -42 c42
-23 78 -40 79 -39 2 2 8 14 15 26 10 20 6 24 -44 53 -30 17 -55 35 -55 38 0 4
20 18 45 32 49 27 51 31 33 60 -12 19 -14 19 -65 -10 l-53 -30 0 70 0 70 -30
0 -30 0 0 -87 0 -88 -90 -52 -90 -52 0 104 0 105 75 42 c41 24 75 46 75 49 0
3 -7 14 -15 25 -14 19 -16 18 -75 -14 l-60 -33 0 61 c0 60 0 60 -30 60 -29 0
-29 -1 -32 -60z"/>
</g>
</svg>
